<svg width="1024" height="1024" viewBox="0 0 1024 1024" fill="none" xmlns="http://www.w3.org/2000/svg">
  <defs>
    <linearGradient id="bg" x1="120" y1="96" x2="904" y2="928" gradientUnits="userSpaceOnUse">
      <stop offset="0" stop-color="#FFF3D6"/>
      <stop offset="0.45" stop-color="#FFC56A"/>
      <stop offset="1" stop-color="#E36A1E"/>
    </linearGradient>
    <linearGradient id="panel" x1="260" y1="220" x2="760" y2="804" gradientUnits="userSpaceOnUse">
      <stop offset="0" stop-color="#FFF9EC" stop-opacity="0.95"/>
      <stop offset="1" stop-color="#FFE5AF" stop-opacity="0.72"/>
    </linearGradient>
    <linearGradient id="mic" x1="438" y1="356" x2="582" y2="700" gradientUnits="userSpaceOnUse">
      <stop offset="0" stop-color="#322114"/>
      <stop offset="1" stop-color="#100A06"/>
    </linearGradient>
    <filter id="shadow" x="140" y="124" width="744" height="776" filterUnits="userSpaceOnUse" color-interpolation-filters="sRGB">
      <feFlood flood-opacity="0" result="BackgroundImageFix"/>
      <feColorMatrix in="SourceAlpha" type="matrix" values="0 0 0 0 0 0 0 0 0 0 0 0 0 0 0 0 0 0 127 0" result="hardAlpha"/>
      <feOffset dy="18"/>
      <feGaussianBlur stdDeviation="30"/>
      <feColorMatrix type="matrix" values="0 0 0 0 0.364706 0 0 0 0 0.14902 0 0 0 0 0.0313726 0 0 0 0.24 0"/>
      <feBlend mode="normal" in2="BackgroundImageFix" result="effect1_dropShadow_1_1"/>
      <feBlend mode="normal" in="SourceGraphic" in2="effect1_dropShadow_1_1" result="shape"/>
    </filter>
  </defs>

  <rect x="64" y="64" width="896" height="896" rx="204" fill="url(#bg)"/>
  <circle cx="264" cy="228" r="132" fill="#FFF8E7" fill-opacity="0.32"/>
  <circle cx="784" cy="812" r="176" fill="#A63F12" fill-opacity="0.16"/>
  <circle cx="780" cy="248" r="88" fill="#FFF1C8" fill-opacity="0.24"/>

  <g filter="url(#shadow)">
    <rect x="232" y="184" width="560" height="592" rx="176" fill="url(#panel)"/>
    <rect x="232" y="184" width="560" height="592" rx="176" stroke="#FFFDF7" stroke-opacity="0.62" stroke-width="8"/>

    <path d="M512 320C465.608 320 428 357.608 428 404V514C428 560.392 465.608 598 512 598C558.392 598 596 560.392 596 514V404C596 357.608 558.392 320 512 320Z" fill="url(#mic)"/>
    <path d="M512 320C465.608 320 428 357.608 428 404V514C428 560.392 465.608 598 512 598C558.392 598 596 560.392 596 514V404C596 357.608 558.392 320 512 320Z" stroke="#FFF2D2" stroke-opacity="0.08" stroke-width="6"/>
    <rect x="484" y="590" width="56" height="126" rx="28" fill="#1A1008"/>
    <rect x="418" y="694" width="188" height="40" rx="20" fill="#1A1008"/>

    <path d="M372 462C372 541.529 432.471 606 512 606C591.529 606 652 541.529 652 462" stroke="#1A1008" stroke-width="48" stroke-linecap="round"/>

    <path d="M338 346C287.758 399.467 287.758 518.533 338 572" stroke="#5C2A0D" stroke-width="34" stroke-linecap="round" opacity="0.9"/>
    <path d="M688 346C738.242 399.467 738.242 518.533 688 572" stroke="#5C2A0D" stroke-width="34" stroke-linecap="round" opacity="0.9"/>
    <path d="M272 296C197.769 375.84 197.769 542.16 272 622" stroke="#7A3412" stroke-width="24" stroke-linecap="round" opacity="0.58"/>
    <path d="M752 296C826.231 375.84 826.231 542.16 752 622" stroke="#7A3412" stroke-width="24" stroke-linecap="round" opacity="0.58"/>

    <circle cx="512" cy="430" r="24" fill="#FFF2C5" fill-opacity="0.16"/>
  </g>
</svg>
